<?xml version="1.0" encoding="iso-8859-1"?>
<!-- Generator: Adobe Illustrator 19.0.0, SVG Export Plug-In . SVG Version: 6.00 Build 0)  -->
<svg version="1.1" id="Layer_1" xmlns="http://www.w3.org/2000/svg" xmlns:xlink="http://www.w3.org/1999/xlink" x="0px" y="0px"
	 viewBox="0 0 512.001 512.001" style="enable-background:new 0 0 512.001 512.001;" xml:space="preserve">
<path style="fill:#5F666F;" d="M456.45,20.226H18.819C12.844,20.226,8,25.071,8,31.046v449.909c0,5.977,4.845,10.819,10.819,10.819
	h449.911c5.975,0,10.819-4.844,10.819-10.819V43.326L456.45,20.226z"/>
<path style="fill:#394049;" d="M480.9,20.226H43.27c-5.975,0-10.819,4.845-10.819,10.82v449.909c0,5.977,4.844,10.819,10.819,10.819
	h449.911c5.975,0,10.819-4.844,10.819-10.819V43.326L480.9,20.226z"/>
<rect x="91.2" y="20.226" style="fill:#5F666F;" width="336.331" height="149.749"/>
<path style="fill:#A3A6AA;" d="M215.653,20.226v149.748h211.879V20.226H215.653z M400.45,145.462h-60.535V44.739h60.535V145.462z"/>
<rect x="91.2" y="256.001" style="fill:#C1C4C6;" width="354.037" height="235.776"/>
<rect x="91.2" y="256.001" style="fill:#4070C9;" width="354.037" height="33.455"/>
<path d="M400.45,36.739h-60.537c-4.418,0-8,3.582-8,8v100.723c0,4.418,3.582,8,8,8h60.537c4.418,0,8-3.582,8-8V44.739
	C408.45,40.321,404.868,36.739,400.45,36.739z M392.45,137.462h-44.537V52.739h44.537V137.462z M509.657,37.669l-23.1-23.1
	c-1.5-1.501-3.535-2.343-5.657-2.343H18.82C8.443,12.226,0,20.669,0,31.046v449.909c0,10.377,8.443,18.819,18.82,18.819h474.362
	c10.377,0,18.819-8.443,18.819-18.819V43.326C512,41.204,511.157,39.169,509.657,37.669z M223.653,28.226h195.879v133.748H223.653
	V28.226z M99.205,28.226h108.448v133.748H99.205V28.226z M24.685,483.776h-5.866c-1.555,0-2.82-1.265-2.82-2.819V31.046
	c0-1.555,1.265-2.82,2.82-2.82h5.866c-0.14,0.923-0.235,1.859-0.235,2.82v449.909C24.45,481.917,24.546,482.853,24.685,483.776z
	 M437.246,483.776H99.205V264.001h338.042v219.775H437.246z M496,480.957c0,1.554-1.265,2.819-2.819,2.819h-39.935V256.001
	c0-4.418-3.582-8-8-8H91.205c-4.418,0-8,3.582-8,8v227.775H43.27c-1.555,0-2.819-1.265-2.819-2.819V31.046
	c0-1.555,1.265-2.82,2.819-2.82h39.935v141.748c0,4.418,3.582,8,8,8h336.329c4.418,0,8-3.582,8-8V28.226h42.053L496,46.64V480.957z"
	/>
<g>
</g>
<g>
</g>
<g>
</g>
<g>
</g>
<g>
</g>
<g>
</g>
<g>
</g>
<g>
</g>
<g>
</g>
<g>
</g>
<g>
</g>
<g>
</g>
<g>
</g>
<g>
</g>
<g>
</g>
</svg>
